<svg width="20" height="20" viewBox="0 0 20 20" fill="none" xmlns="http://www.w3.org/2000/svg">
<path d="M14.3334 18.75C13.3106 18.73 12.302 18.5062 11.3668 18.0917C10.3111 17.6331 9.31033 17.0573 8.38343 16.375C7.38843 15.6466 6.44966 14.8443 5.57509 13.975C4.70782 13.1038 3.90828 12.1678 3.18343 11.175C2.52102 10.25 1.96212 9.2552 1.51676 8.20832C1.10379 7.27288 0.882759 6.26407 0.866761 5.24165C0.86362 4.61172 0.979545 3.98687 1.20843 3.39998C1.44149 2.7827 1.80864 2.22484 2.28343 1.76665C2.56368 1.47272 2.89952 1.23739 3.27146 1.0743C3.6434 0.911223 4.04404 0.823645 4.4501 0.81665C4.77535 0.817215 5.09661 0.888292 5.39176 1.02498C5.7267 1.16844 6.0152 1.40213 6.22509 1.69998L8.15843 4.42498C8.32447 4.64107 8.45913 4.87954 8.55842 5.13332C8.66495 5.36626 8.72171 5.61886 8.72509 5.87498C8.72201 6.19922 8.62976 6.51636 8.45843 6.79165C8.30527 7.05196 8.11744 7.29026 7.9001 7.49998L7.33342 8.09165V8.14998C7.53383 8.47502 7.7625 8.78176 8.01676 9.06665C8.38343 9.49165 8.77509 9.89998 9.19175 10.35C9.60842 10.8 10.0918 11.1833 10.4751 11.5416C10.7734 11.804 11.0972 12.0357 11.4418 12.2333L12.0168 11.6667C12.236 11.4356 12.4888 11.2389 12.7668 11.0833C13.0116 10.9421 13.2862 10.8602 13.5684 10.8443C13.8506 10.8284 14.1326 10.8789 14.3918 10.9916C14.6376 11.0986 14.872 11.2298 15.0918 11.3833L17.8584 13.35C18.1601 13.5536 18.3927 13.8443 18.5251 14.1833C18.6605 14.4704 18.7343 14.7827 18.7418 15.1C18.7397 15.5064 18.6487 15.9075 18.4751 16.275C18.3012 16.6401 18.0737 16.9771 17.8001 17.275C17.365 17.7736 16.8202 18.1644 16.2084 18.4166C15.6122 18.6528 14.9745 18.7661 14.3334 18.75ZM4.4501 2.08332C4.2045 2.0924 3.96314 2.1501 3.73999 2.25309C3.51684 2.35608 3.31633 2.50231 3.15009 2.68332C2.78855 3.00828 2.50388 3.40966 2.31675 3.85831C2.1409 4.29806 2.05313 4.76807 2.05842 5.24165C2.07221 6.10344 2.25926 6.95364 2.60843 7.74165C3.03025 8.70151 3.55559 9.61246 4.1751 10.4583C4.86001 11.3973 5.61493 12.2832 6.43342 13.1083C7.26198 13.9289 8.15056 14.6865 9.09176 15.375C9.94284 16.0047 10.8626 16.5359 11.8334 16.9583C12.4249 17.2608 13.0708 17.4424 13.7332 17.4925C14.3957 17.5426 15.0615 17.4601 15.6918 17.25C16.1301 17.0615 16.5203 16.7767 16.8334 16.4167C17.0209 16.2063 17.178 15.9706 17.3001 15.7167C17.3978 15.5168 17.4491 15.2974 17.4501 15.075C17.4501 14.9311 17.4188 14.7889 17.3584 14.6583C17.3082 14.5529 17.2268 14.4656 17.1251 14.4083L14.3584 12.4417C14.2156 12.3389 14.0619 12.2523 13.9001 12.1833C13.819 12.1365 13.727 12.1119 13.6334 12.1119C13.5398 12.1119 13.4478 12.1365 13.3668 12.1833C13.1922 12.2962 13.0374 12.437 12.9084 12.6L12.2668 13.225C12.1096 13.3739 11.9142 13.4761 11.7022 13.5203C11.4903 13.5644 11.2703 13.5487 11.0668 13.475L10.8418 13.375C10.4148 13.1424 10.0151 12.8629 9.65009 12.5416C9.25009 12.2 8.81676 11.8083 8.29176 11.2833C7.76676 10.7583 7.45843 10.45 7.05009 9.93332C6.73704 9.5679 6.4581 9.17459 6.21676 8.75832L6.11676 8.50832C6.07231 8.37678 6.04979 8.23883 6.0501 8.09998C6.04788 7.95612 6.07479 7.8133 6.12921 7.68012C6.18363 7.54693 6.26443 7.42613 6.36675 7.32498L6.99175 6.67498C7.13561 6.53557 7.26159 6.37881 7.36676 6.20832C7.42001 6.12278 7.45148 6.0255 7.45843 5.92498C7.45318 5.83536 7.43054 5.74762 7.39176 5.66665C7.32206 5.50089 7.23251 5.34419 7.12509 5.19998L5.19176 2.46665C5.11248 2.35258 5.00276 2.26307 4.87509 2.20832C4.74489 2.13459 4.59948 2.09182 4.4501 2.08332Z" fill="#A5A8AD"/>
<path d="M15.2084 7.91665C15.0427 7.91665 14.8837 7.8508 14.7665 7.73359C14.6493 7.61638 14.5834 7.45741 14.5834 7.29165C14.4635 6.72853 14.1725 6.21624 13.7501 5.82498C13.3832 5.36445 12.8509 5.06543 12.2668 4.99165C12.101 4.99165 11.942 4.9258 11.8248 4.80859C11.7076 4.69138 11.6418 4.53241 11.6418 4.36665C11.6406 4.28426 11.656 4.20249 11.6871 4.12615C11.7181 4.04982 11.7641 3.98047 11.8223 3.92221C11.8806 3.86395 11.9499 3.81795 12.0263 3.78694C12.1026 3.75593 12.1844 3.74053 12.2668 3.74165C12.7288 3.77296 13.1798 3.89766 13.5923 4.10822C14.0048 4.31877 14.3703 4.6108 14.6668 4.96665C15.3022 5.58479 15.7053 6.40287 15.8084 7.28332C15.8087 7.44567 15.7465 7.6019 15.6349 7.71976C15.5232 7.83762 15.3706 7.90811 15.2084 7.91665Z" fill="#A5A8AD"/>
<path d="M18.1251 7.91665C17.9593 7.91665 17.8004 7.8508 17.6832 7.73359C17.566 7.61638 17.5001 7.45741 17.5001 7.29165C17.4979 5.91099 16.9485 4.58751 15.9722 3.61124C14.9959 2.63496 13.6724 2.08552 12.2918 2.08332C12.126 2.08332 11.967 2.01747 11.8498 1.90026C11.7326 1.78305 11.6668 1.62408 11.6668 1.45832C11.6656 1.37593 11.681 1.29415 11.7121 1.21782C11.7431 1.14148 11.7891 1.07214 11.8473 1.01388C11.9056 0.955615 11.9749 0.90962 12.0513 0.878607C12.1276 0.847595 12.2094 0.832196 12.2918 0.833317C14.0025 0.837725 15.6418 1.51983 16.8507 2.73029C18.0596 3.94075 18.7396 5.58091 18.7418 7.29165C18.7397 7.45533 18.6743 7.61183 18.5593 7.72835C18.4443 7.84487 18.2887 7.91236 18.1251 7.91665Z" fill="#A5A8AD"/>
</svg>
