<svg width="20" height="20" viewBox="0 0 20 20" fill="none" xmlns="http://www.w3.org/2000/svg">
<path d="M10.2826 11.611C9.43302 11.6111 8.61774 11.2759 8.01388 10.6783C7.41003 10.0807 7.06638 9.2689 7.0576 8.41936C7.0576 7.56404 7.39738 6.74375 8.00218 6.13894C8.60698 5.53414 9.42728 5.19436 10.2826 5.19436C11.1379 5.19436 11.9582 5.53414 12.563 6.13894C13.1678 6.74375 13.5076 7.56404 13.5076 8.41936C13.4967 9.26822 13.1523 10.0787 12.5489 10.6759C11.9455 11.273 11.1315 11.6089 10.2826 11.611ZM10.2826 6.41103C10.0204 6.41099 9.76083 6.46316 9.51902 6.56449C9.2772 6.66582 9.05798 6.81429 8.87414 7.00123C8.69031 7.18817 8.54553 7.40985 8.44826 7.65332C8.35099 7.8968 8.30317 8.15721 8.3076 8.41936C8.3076 8.67873 8.35868 8.93555 8.45793 9.17516C8.55719 9.41478 8.70266 9.6325 8.88606 9.8159C9.06945 9.9993 9.28718 10.1448 9.5268 10.244C9.76642 10.3433 10.0232 10.3944 10.2826 10.3944C10.8064 10.3944 11.3088 10.1863 11.6791 9.8159C12.0495 9.44552 12.2576 8.94317 12.2576 8.41936C12.262 8.15721 12.2142 7.8968 12.1169 7.65332C12.0197 7.40985 11.8749 7.18817 11.691 7.00123C11.5072 6.81429 11.288 6.66582 11.0462 6.56449C10.8044 6.46316 10.5448 6.41099 10.2826 6.41103Z" fill="#A5A8AD"/>
<path d="M10.2826 18.7444C9.26674 18.6386 8.33162 18.1427 7.67422 17.361C5.70756 15.461 1.60756 11.5277 2.67422 6.7277C3.0644 5.01992 4.03381 3.4999 5.41772 2.42588C6.80164 1.35187 8.51471 0.790102 10.2659 0.836033C12.023 0.789 13.7419 1.35312 15.1294 2.43213C16.5169 3.51114 17.487 5.03818 17.8742 6.7527C18.9576 11.5444 14.8576 15.486 12.8742 17.3777C12.2191 18.1507 11.2905 18.6404 10.2826 18.7444ZM3.90756 7.0027C2.98256 11.1027 6.73256 14.7194 8.54089 16.461C9.99089 17.8527 10.5742 17.8527 12.0159 16.461C13.8242 14.7194 17.5826 11.111 16.6576 7.01103C16.3374 5.57484 15.5245 4.29604 14.3601 3.39645C13.1957 2.49687 11.7531 2.03325 10.2826 2.08603C8.81283 2.03123 7.37034 2.49305 6.20572 3.39125C5.04111 4.28945 4.22796 5.56727 3.90756 7.0027Z" fill="#A5A8AD"/>
</svg>
