<svg width="20" height="20" viewBox="0 0 20 20" fill="none" xmlns="http://www.w3.org/2000/svg">
<path fill-rule="evenodd" clip-rule="evenodd" d="M9.99988 2.29169C8.04387 2.29169 6.45822 3.87735 6.45822 5.83335C6.45822 7.78936 8.04387 9.37502 9.99988 9.37502C11.9559 9.37502 13.5416 7.78936 13.5416 5.83335C13.5416 3.87735 11.9559 2.29169 9.99988 2.29169ZM5.20822 5.83335C5.20822 3.18699 7.35352 1.04169 9.99988 1.04169C12.6462 1.04169 14.7916 3.18699 14.7916 5.83335C14.7916 8.47972 12.6462 10.625 9.99988 10.625C7.35352 10.625 5.20822 8.47972 5.20822 5.83335ZM2.21655 18.3334C2.21655 14.6493 5.83082 11.875 9.99988 11.875C14.1689 11.875 17.7832 14.6493 17.7832 18.3334C17.7832 18.6785 17.5034 18.9584 17.1582 18.9584C16.813 18.9584 16.5332 18.6785 16.5332 18.3334C16.5332 15.5674 13.7308 13.125 9.99988 13.125C6.26895 13.125 3.46655 15.5674 3.46655 18.3334C3.46655 18.6785 3.18673 18.9584 2.84155 18.9584C2.49637 18.9584 2.21655 18.6785 2.21655 18.3334Z" fill="#A5A8AD"/>
</svg>
