<svg width="180" height="60" viewBox="0 0 180 60" fill="none" xmlns="http://www.w3.org/2000/svg">
<rect x="0.5" y="0.5" width="179" height="59" rx="7.5" stroke="#DDE3F0"/>
<path d="M115.794 27.9012V30.6417H114.092V32.439H115.794V38.5457C115.794 40.631 116.729 41.4651 119.08 41.4651C119.493 41.4651 119.887 41.4154 120.231 41.3558V39.5784C119.936 39.6082 119.749 39.6281 119.424 39.6281C118.372 39.6281 117.909 39.1316 117.909 37.9996V32.439H120.231V30.6417H117.909V27.9012H115.794Z" fill="#A5A8AD"/>
<path d="M126.221 41.614C129.35 41.614 131.268 39.499 131.268 35.9938C131.268 32.5085 129.34 30.3836 126.221 30.3836C123.092 30.3836 121.164 32.5085 121.164 35.9938C121.164 39.499 123.083 41.614 126.221 41.614ZM126.221 39.7174C124.381 39.7174 123.348 38.3571 123.348 35.9938C123.348 33.6504 124.381 32.2801 126.221 32.2801C128.051 32.2801 129.094 33.6504 129.094 35.9938C129.094 38.3471 128.051 39.7174 126.221 39.7174Z" fill="#A5A8AD"/>
<path d="M132.91 41.4055H135.025V35.0207C135.025 33.5015 136.156 32.4787 137.76 32.4787C138.134 32.4787 138.764 32.5482 138.941 32.6078V30.5027C138.714 30.4431 138.311 30.4134 137.996 30.4134C136.599 30.4134 135.409 31.1879 135.104 32.2503H134.946V30.5921H132.91V41.4055Z" fill="#A5A8AD"/>
<path d="M144.193 32.2007C145.757 32.2007 146.78 33.3029 146.83 35.0009H141.418C141.536 33.3128 142.629 32.2007 144.193 32.2007ZM146.82 38.4862C146.426 39.3302 145.551 39.7969 144.272 39.7969C142.579 39.7969 141.487 38.5954 141.418 36.6988V36.5797H148.984V35.8349C148.984 32.439 147.184 30.3836 144.203 30.3836C141.182 30.3836 139.264 32.578 139.264 36.0335C139.264 39.4891 141.143 41.614 144.213 41.614C146.662 41.614 148.374 40.4224 148.856 38.4862H146.82Z" fill="#A5A8AD"/>
<path d="M101.922 37.4123C102.085 40.0675 104.278 41.7657 107.541 41.7657C111.028 41.7657 113.211 39.9852 113.211 37.1447C113.211 34.9114 111.967 33.6763 108.948 32.9662L107.327 32.5648C105.41 32.112 104.635 31.5048 104.635 30.4447C104.635 29.1068 105.838 28.232 107.643 28.232C109.356 28.232 110.539 29.0862 110.753 30.455H112.976C112.844 27.9541 110.661 26.1942 107.673 26.1942C104.461 26.1942 102.32 27.9541 102.32 30.5991C102.32 32.781 103.533 34.0777 106.195 34.7055L108.092 35.1687C110.039 35.6318 110.896 36.311 110.896 37.4431C110.896 38.7605 109.55 39.7176 107.714 39.7176C105.746 39.7176 104.38 38.8222 104.186 37.4123H101.922Z" fill="#A5A8AD"/>
<path d="M80.0101 30.4134C78.554 30.4134 77.2947 31.1481 76.6453 32.3794H76.4879V30.5921H74.4514V45H76.5666V39.7671H76.7339C77.2947 40.909 78.5048 41.5842 80.0298 41.5842C82.7354 41.5842 84.4571 39.4295 84.4571 35.9938C84.4571 32.5582 82.7354 30.4134 80.0101 30.4134ZM79.41 39.6678C77.639 39.6678 76.5273 38.2578 76.5273 36.0037C76.5273 33.7398 77.639 32.3298 79.4198 32.3298C81.2104 32.3298 82.2828 33.71 82.2828 35.9938C82.2828 38.2876 81.2104 39.6678 79.41 39.6678Z" fill="#A5A8AD"/>
<path d="M91.8588 30.4134C90.4027 30.4134 89.1434 31.1481 88.494 32.3794H88.3366V30.5921H86.3V45H88.4153V39.7671H88.5826C89.1434 40.909 90.3535 41.5842 91.8785 41.5842C94.5841 41.5842 96.3058 39.4295 96.3058 35.9938C96.3058 32.5582 94.5841 30.4134 91.8588 30.4134ZM91.2586 39.6678C89.4877 39.6678 88.376 38.2578 88.376 36.0037C88.376 33.7398 89.4877 32.3298 91.2685 32.3298C93.0591 32.3298 94.1315 33.71 94.1315 35.9938C94.1315 38.2876 93.0591 39.6678 91.2586 39.6678Z" fill="#A5A8AD"/>
<path d="M70.6562 41.4055H73.0831L67.7703 26.5544H65.3128L60 41.4055H62.3454L63.7016 37.4637H69.3101L70.6562 41.4055ZM66.4243 29.2509H66.5977L68.7289 35.5289H64.2829L66.4243 29.2509Z" fill="#A5A8AD"/>
<path d="M60.6 16.59C60.96 16.23 61.9 15.85 62.95 15.85C64.41 15.85 65.42 16.61 65.42 17.78C65.42 18.68 64.81 19.16 64.22 19.31C64.83 19.41 65.65 19.95 65.65 21.02C65.65 22.22 64.57 23.11 62.99 23.11C61.93 23.11 60.9 22.73 60.54 22.37V21.42C61.06 21.91 62.04 22.28 62.94 22.28C64 22.28 64.74 21.78 64.74 20.99C64.74 20.15 63.93 19.79 63.04 19.79H61.95V18.98H63C63.91 18.98 64.51 18.48 64.51 17.81C64.51 17.07 63.85 16.68 62.9 16.68C62.01 16.68 61.12 17.05 60.6 17.54V16.59ZM71.283 22.98C71.173 23.04 71.013 23.11 70.763 23.11C70.303 23.11 69.903 22.86 69.813 22.44C69.523 22.83 69.083 23.11 68.333 23.11C67.353 23.11 66.553 22.53 66.553 21.56C66.553 20.56 67.463 19.99 68.593 19.99C69.143 19.99 69.523 20.08 69.793 20.18V19.71C69.793 19 69.303 18.64 68.563 18.64C67.913 18.64 67.243 18.91 66.863 19.26V18.41C67.163 18.15 67.813 17.85 68.633 17.85C69.883 17.85 70.643 18.56 70.643 19.66V22.01C70.643 22.26 70.793 22.38 71.023 22.38C71.123 22.38 71.213 22.36 71.283 22.32V22.98ZM67.423 21.56C67.423 22.05 67.813 22.36 68.463 22.36C69.113 22.36 69.513 22.12 69.793 21.77V20.87C69.493 20.77 69.113 20.69 68.633 20.69C67.983 20.69 67.423 20.99 67.423 21.56ZM72.2634 23V17.96H75.6834V18.73H73.1234V23H72.2634ZM76.7459 24.91V17.96H77.5759V18.66C77.8359 18.25 78.3159 17.85 79.1459 17.85C80.3159 17.85 81.3259 18.8 81.3259 20.48C81.3259 22.16 80.3159 23.11 79.1459 23.11C78.3559 23.11 77.8759 22.74 77.6059 22.36V24.91H76.7459ZM77.6059 21.66C77.9359 22.07 78.4359 22.33 79.0059 22.33C79.8959 22.33 80.4559 21.59 80.4559 20.48C80.4559 19.38 79.8959 18.63 79.0059 18.63C78.4359 18.63 77.9359 18.89 77.6059 19.3V21.66ZM85.7488 17.96H86.6388L84.7688 22.76C84.2288 24.15 83.5688 25.08 82.4888 25.08C82.2188 25.08 81.9988 25.01 81.8988 24.96V24.17C82.0088 24.24 82.1588 24.29 82.3787 24.29C83.0188 24.29 83.4088 23.8 83.7988 22.96L81.8688 17.96H82.7988L84.2688 21.92L85.7488 17.96ZM87.3671 18.38C87.6771 18.1 88.4271 17.85 89.1471 17.85C90.3271 17.85 91.0571 18.42 91.0571 19.25C91.0571 19.87 90.6571 20.23 90.1971 20.36C90.6971 20.43 91.2571 20.84 91.2571 21.55C91.2571 22.56 90.3071 23.11 89.1471 23.11C88.2871 23.11 87.5971 22.82 87.2871 22.52V21.65C87.6671 22.02 88.4371 22.34 89.1171 22.34C89.8771 22.34 90.3971 22.09 90.3971 21.54C90.3971 21.05 89.9771 20.8 89.2571 20.8H88.4371V20.06H89.1771C89.7971 20.06 90.1971 19.8 90.1971 19.35C90.1971 18.88 89.7671 18.62 89.0771 18.62C88.4171 18.62 87.6971 18.93 87.3671 19.24V18.38ZM96.709 17.96V23H95.859V19.26L93.289 23H92.449V17.96H93.299V21.69L95.869 17.96H96.709ZM97.7712 18.73V17.96H102.121V18.73H100.371V23H99.5112V18.73H97.7712ZM102.667 20.45C102.667 18.9 103.627 17.85 104.987 17.85C106.307 17.85 107.157 18.84 107.157 20.18V20.73H103.567C103.567 21.53 104.247 22.32 105.397 22.32C106.147 22.32 106.717 22.04 107.097 21.71V22.58C106.787 22.84 106.167 23.11 105.347 23.11C103.767 23.11 102.667 22.06 102.667 20.45ZM103.567 20.01H106.307C106.267 19.25 105.777 18.62 104.977 18.62C104.167 18.62 103.647 19.21 103.567 20.01ZM110.613 23V17.96H112.853C113.903 17.96 114.433 18.53 114.433 19.25C114.433 19.82 114.113 20.18 113.693 20.31C114.173 20.43 114.643 20.84 114.643 21.56C114.643 22.37 114.033 23 112.953 23H110.613ZM111.463 22.25H112.883C113.423 22.25 113.783 21.99 113.783 21.51C113.783 21.03 113.423 20.77 112.883 20.77H111.463V22.25ZM111.463 20.05H112.773C113.263 20.05 113.583 19.8 113.583 19.37C113.583 18.94 113.263 18.69 112.773 18.69H111.463V20.05Z" fill="#A5A8AD"/>
<path d="M48.5385 29.2169C48.5642 27.206 49.6342 25.3033 51.3316 24.2501C50.2608 22.7066 48.4672 21.7279 46.6011 21.669C44.6108 21.4582 42.6812 22.871 41.667 22.871C40.6332 22.871 39.0716 21.6899 37.39 21.7249C35.1982 21.7963 33.1549 23.054 32.0885 24.988C29.7963 28.9935 31.5061 34.8802 33.7019 38.1179C34.8005 39.7034 36.0844 41.4743 37.7645 41.4115C39.4085 41.3427 40.0225 40.3535 42.007 40.3535C43.973 40.3535 44.5491 41.4115 46.2632 41.3716C48.0273 41.3427 49.1388 39.7791 50.1988 38.1787C50.9882 37.049 51.5956 35.8005 51.9985 34.4793C49.9254 33.5944 48.5409 31.4887 48.5385 29.2169Z" fill="#A5A8AD"/>
<path d="M45.3008 19.5397C46.2627 18.3743 46.7365 16.8764 46.6218 15.3641C45.1523 15.5199 43.7949 16.2287 42.82 17.3494C41.8667 18.4444 41.3706 19.9159 41.4644 21.3704C42.9345 21.3857 44.3796 20.6961 45.3008 19.5397Z" fill="#A5A8AD"/>
</svg>
