<svg width="24" height="24" viewBox="0 0 24 24" fill="none" xmlns="http://www.w3.org/2000/svg">
<path d="M17.2 22.5C15.9726 22.476 14.7623 22.2074 13.64 21.71C12.3732 21.1598 11.1723 20.4688 10.06 19.65C8.866 18.7759 7.73947 17.8132 6.68999 16.77C5.64926 15.7246 4.68981 14.6013 3.81999 13.41C3.0251 12.3 2.35442 11.1062 1.81999 9.84998C1.32442 8.72745 1.05919 7.51688 1.03999 6.28998C1.03622 5.53406 1.17533 4.78424 1.45 4.07998C1.72966 3.33924 2.17025 2.66981 2.73999 2.11998C3.07629 1.76727 3.4793 1.48486 3.92563 1.28917C4.37196 1.09347 4.85272 0.988373 5.33999 0.97998C5.7303 0.980658 6.11581 1.06595 6.46998 1.22998C6.87192 1.40213 7.21812 1.68255 7.46998 2.03998L9.78999 5.30998C9.98924 5.56928 10.1508 5.85545 10.27 6.15998C10.3978 6.43951 10.4659 6.74263 10.47 7.04998C10.4663 7.43906 10.3556 7.81963 10.15 8.14998C9.9662 8.46236 9.7408 8.74831 9.47999 8.99998L8.79999 9.70998V9.77998C9.04048 10.17 9.31488 10.5381 9.61999 10.88C10.06 11.39 10.53 11.88 11.03 12.42C11.53 12.96 12.11 13.42 12.57 13.85C12.9279 14.1648 13.3165 14.4428 13.73 14.68L14.42 14C14.6831 13.7227 14.9865 13.4867 15.32 13.3C15.6138 13.1305 15.9433 13.0323 16.2819 13.0132C16.6206 12.9941 16.959 13.0546 17.27 13.19C17.5649 13.3183 17.8463 13.4757 18.11 13.66L21.43 16.02C21.792 16.2643 22.0711 16.6131 22.23 17.02C22.3924 17.3645 22.481 17.7392 22.49 18.12C22.4876 18.6077 22.3783 19.089 22.17 19.53C21.9613 19.9681 21.6883 20.3726 21.36 20.73C20.8379 21.3283 20.1841 21.7973 19.45 22.1C18.7345 22.3833 17.9693 22.5194 17.2 22.5ZM5.33999 2.49998C5.04528 2.51088 4.75564 2.58012 4.48787 2.70371C4.22009 2.8273 3.97948 3.00277 3.77998 3.21998C3.34613 3.60994 3.00454 4.09159 2.77998 4.62998C2.56896 5.15768 2.46363 5.72168 2.46998 6.28998C2.48654 7.32412 2.71099 8.34437 3.12999 9.28998C3.63618 10.4418 4.26658 11.535 5.00999 12.55C5.83189 13.6768 6.7378 14.7398 7.71998 15.73C8.71426 16.7146 9.78055 17.6238 10.91 18.45C11.9313 19.2057 13.035 19.8431 14.2 20.35C14.9098 20.713 15.6848 20.9309 16.4798 20.991C17.2747 21.0511 18.0737 20.9522 18.83 20.7C19.356 20.4738 19.8243 20.132 20.2 19.7C20.425 19.4475 20.6135 19.1648 20.76 18.86C20.8773 18.6202 20.9388 18.3569 20.94 18.09C20.94 17.9173 20.9025 17.7467 20.83 17.59C20.7698 17.4635 20.672 17.3588 20.55 17.29L17.23 14.93C17.0586 14.8067 16.8742 14.7028 16.68 14.62C16.5827 14.5638 16.4723 14.5342 16.36 14.5342C16.2476 14.5342 16.1373 14.5638 16.04 14.62C15.8305 14.7554 15.6447 14.9243 15.49 15.12L14.72 15.87C14.5314 16.0487 14.2969 16.1713 14.0426 16.2243C13.7882 16.2773 13.5242 16.2585 13.28 16.17L13.01 16.05C12.4976 15.7709 12.018 15.4355 11.58 15.05C11.1 14.64 10.58 14.17 9.95 13.54C9.31999 12.91 8.94999 12.54 8.45999 11.92C8.08432 11.4815 7.74959 11.0095 7.45999 10.51L7.33999 10.21C7.28665 10.0521 7.25962 9.88659 7.25999 9.71998C7.25734 9.54735 7.28963 9.37597 7.35493 9.21614C7.42024 9.05632 7.5172 8.91135 7.63998 8.78998L8.38998 8.00998C8.56261 7.84269 8.71378 7.65458 8.83999 7.44998C8.90389 7.34734 8.94165 7.2306 8.95 7.10998C8.9437 7.00244 8.91653 6.89714 8.86999 6.79998C8.78635 6.60107 8.67889 6.41303 8.54999 6.23998L6.22999 2.95998C6.13486 2.8231 6.00319 2.71569 5.84999 2.64998C5.69375 2.56151 5.51925 2.51019 5.33999 2.49998Z" fill="#1D3BCC"/>
<path d="M18.25 9.49998C18.0511 9.49998 17.8603 9.42096 17.7197 9.28031C17.579 9.13966 17.5 8.94889 17.5 8.74998C17.3561 8.07423 17.0068 7.45949 16.5 6.98998C16.0597 6.43734 15.421 6.07852 14.72 5.98998C14.5211 5.98998 14.3303 5.91096 14.1897 5.77031C14.049 5.62966 13.97 5.43889 13.97 5.23998C13.9686 5.14111 13.9871 5.04298 14.0243 4.95138C14.0616 4.85978 14.1168 4.77657 14.1867 4.70665C14.2566 4.63674 14.3398 4.58155 14.4314 4.54433C14.523 4.50712 14.6211 4.48863 14.72 4.48998C15.2745 4.52755 15.8156 4.67719 16.3106 4.92986C16.8056 5.18252 17.2443 5.53296 17.6 5.95998C18.3625 6.70175 18.8462 7.68345 18.97 8.73998C18.9703 8.9348 18.8957 9.12229 18.7617 9.26372C18.6277 9.40515 18.4445 9.48973 18.25 9.49998Z" fill="#1D3BCC"/>
<path d="M21.75 9.49998C21.5511 9.49998 21.3603 9.42096 21.2197 9.28031C21.079 9.13966 21 8.94889 21 8.74998C20.9973 7.09319 20.338 5.50501 19.1665 4.33348C17.995 3.16195 16.4068 2.50263 14.75 2.49998C14.5511 2.49998 14.3603 2.42096 14.2197 2.28031C14.079 2.13966 14 1.94889 14 1.74998C13.9986 1.65112 14.0171 1.55299 14.0543 1.46138C14.0916 1.36978 14.1468 1.28657 14.2167 1.21665C14.2866 1.14674 14.3698 1.09154 14.4614 1.05433C14.553 1.01711 14.6511 0.998636 14.75 0.999981C16.8029 1.00527 18.77 1.8238 20.2207 3.27635C21.6714 4.7289 22.4874 6.69709 22.49 8.74998C22.4875 8.94639 22.409 9.1342 22.271 9.27402C22.1331 9.41385 21.9464 9.49483 21.75 9.49998Z" fill="#1D3BCC"/>
</svg>
