<svg width="20" height="20" viewBox="0 0 20 20" fill="none" xmlns="http://www.w3.org/2000/svg">
<path d="M8.403 11.0313H6.42053C6.10013 11.0313 6 10.9111 6 10.6108V8.18773C6 7.86733 6.12015 7.76721 6.42053 7.76721H8.403V6.00501C8.403 5.20401 8.54318 4.44305 8.94368 3.74218C9.3642 3.02128 9.96496 2.54068 10.7259 2.26033C11.2265 2.0801 11.7272 2 12.2678 2H14.2303C14.5106 2 14.6308 2.12015 14.6308 2.4005V4.68335C14.6308 4.9637 14.5106 5.08385 14.2303 5.08385C13.6896 5.08385 13.1489 5.08385 12.6083 5.10388C12.0676 5.10388 11.7872 5.36421 11.7872 5.92491C11.7672 6.52566 11.7872 7.10638 11.7872 7.72716H14.1101C14.4305 7.72716 14.5507 7.84731 14.5507 8.16771V10.5907C14.5507 10.9111 14.4506 11.0113 14.1101 11.0113H11.7872V17.5394C11.7872 17.8798 11.6871 18 11.3267 18H8.82353C8.52315 18 8.403 17.8799 8.403 17.5795V11.0313Z" fill="#1D3BCC"/>
</svg>
