<svg width="180" height="60" viewBox="0 0 180 60" fill="none" xmlns="http://www.w3.org/2000/svg">
<rect x="0.5" y="0.5" width="179" height="59" rx="7.5" stroke="#DDE3F0"/>
<path d="M90.7635 31.4115C88.185 31.4115 86.0834 33.3838 86.0834 36.1003C86.0834 38.8002 88.185 40.789 90.7635 40.789C93.343 40.789 95.4446 38.8002 95.4446 36.1003C95.4435 33.3838 93.3419 31.4115 90.7635 31.4115ZM90.7635 38.9435C89.3504 38.9435 88.1324 37.7716 88.1324 36.1014C88.1324 34.4135 89.3514 33.2592 90.7635 33.2592C92.1766 33.2592 93.3946 34.4135 93.3946 36.1014C93.3946 37.7705 92.1766 38.9435 90.7635 38.9435ZM80.5526 31.4115C77.9741 31.4115 75.8725 33.3838 75.8725 36.1003C75.8725 38.8002 77.9741 40.789 80.5526 40.789C83.1322 40.789 85.2338 38.8002 85.2338 36.1003C85.2338 33.3838 83.1322 31.4115 80.5526 31.4115ZM80.5526 38.9435C79.1395 38.9435 77.9215 37.7716 77.9215 36.1014C77.9215 34.4135 79.1406 33.2592 80.5526 33.2592C81.9657 33.2592 83.1837 34.4135 83.1837 36.1014C83.1848 37.7705 81.9657 38.9435 80.5526 38.9435ZM68.4079 32.8513V34.8401H73.1417C73.0003 35.9591 72.6297 36.7761 72.064 37.3438C71.3756 38.0362 70.2979 38.8002 68.4079 38.8002C65.4939 38.8002 63.2159 36.4376 63.2159 33.5073C63.2159 30.577 65.4939 28.2144 68.4079 28.2144C69.98 28.2144 71.1278 28.8362 71.9752 29.6355L73.3708 28.232C72.1868 27.0954 70.6158 26.2256 68.4079 26.2256C64.4163 26.2256 61.0605 29.4933 61.0605 33.5073C61.0605 37.5213 64.4163 40.789 68.4079 40.789C70.5621 40.789 72.1879 40.0779 73.4585 38.7461C74.7653 37.432 75.172 35.5843 75.172 34.0927C75.172 33.6319 75.1369 33.2052 75.0657 32.8502H68.4079V32.8513ZM118.079 34.3959C117.691 33.3485 116.507 31.4115 114.087 31.4115C111.685 31.4115 109.689 33.3122 109.689 36.1003C109.689 38.7285 111.668 40.789 114.316 40.789C116.453 40.789 117.689 39.4749 118.203 38.7109L116.613 37.6448C116.083 38.4264 115.359 38.9413 114.316 38.9413C113.275 38.9413 112.533 38.4617 112.056 37.5202L118.29 34.9272L118.079 34.3959ZM111.72 35.9591C111.668 34.1467 113.116 33.224 114.158 33.224C114.971 33.224 115.659 33.633 115.889 34.2184L111.72 35.9591ZM106.652 40.5057H108.7V26.7239H106.652V40.5057ZM103.295 32.46H103.225C102.766 31.9087 101.882 31.4115 100.77 31.4115C98.4386 31.4115 96.3019 33.472 96.3019 36.119C96.3019 38.7472 98.4386 40.7901 100.77 40.7901C101.883 40.7901 102.766 40.2929 103.225 39.7251H103.295V40.3998C103.295 42.1935 102.341 43.1526 100.805 43.1526C99.5513 43.1526 98.7741 42.2475 98.4561 41.4835L96.6725 42.2299C97.1845 43.4723 98.5438 45.0003 100.805 45.0003C103.207 45.0003 105.239 43.5793 105.239 40.1154V31.6971H103.296V32.46H103.295ZM100.947 38.9435C99.5338 38.9435 98.3509 37.7528 98.3509 36.119C98.3509 34.4664 99.5338 33.2592 100.947 33.2592C102.341 33.2592 103.437 34.4664 103.437 36.119C103.437 37.7528 102.341 38.9435 100.947 38.9435ZM127.676 26.7239H122.774V40.5057H124.819V35.2844H127.675C129.942 35.2844 132.171 33.6341 132.171 31.0047C132.171 28.3754 129.943 26.7239 127.676 26.7239ZM127.728 33.3662H124.819V28.6422H127.728C129.258 28.6422 130.126 29.9155 130.126 31.0047C130.126 32.0719 129.258 33.3662 127.728 33.3662ZM140.371 31.3873C138.89 31.3873 137.356 32.0432 136.721 33.4974L138.537 34.2592C138.925 33.4974 139.648 33.2482 140.406 33.2482C141.464 33.2482 142.539 33.8865 142.557 35.021V35.1632C142.186 34.9504 141.392 34.6318 140.423 34.6318C138.466 34.6318 136.473 35.7133 136.473 37.7341C136.473 39.5785 138.078 40.7658 139.876 40.7658C141.251 40.7658 142.01 40.1451 142.485 39.4175H142.556V40.4814H144.531V35.1973C144.532 32.7521 142.715 31.3873 140.371 31.3873ZM140.123 38.9402C139.454 38.9402 138.519 38.6028 138.519 37.7694C138.519 36.7055 139.683 36.2976 140.689 36.2976C141.586 36.2976 142.011 36.4927 142.557 36.7584C142.398 38.0362 141.305 38.9402 140.123 38.9402ZM151.725 31.6882L149.38 37.6635H149.31L146.876 31.6882H144.673L148.322 40.0393L146.241 44.685H148.375L154 31.6882H151.725ZM133.301 40.5057H135.345V26.7239L133.301 26.7239V40.5057Z" fill="#A5A8AD"/>
<path d="M61.6 15.59C61.96 15.23 62.9 14.85 63.95 14.85C65.41 14.85 66.42 15.61 66.42 16.78C66.42 17.68 65.81 18.16 65.22 18.31C65.83 18.41 66.65 18.95 66.65 20.02C66.65 21.22 65.57 22.11 63.99 22.11C62.93 22.11 61.9 21.73 61.54 21.37V20.42C62.06 20.91 63.04 21.28 63.94 21.28C65 21.28 65.74 20.78 65.74 19.99C65.74 19.15 64.93 18.79 64.04 18.79H62.95V17.98H64C64.91 17.98 65.51 17.48 65.51 16.81C65.51 16.07 64.85 15.68 63.9 15.68C63.01 15.68 62.12 16.05 61.6 16.54V15.59ZM72.283 21.98C72.173 22.04 72.013 22.11 71.763 22.11C71.303 22.11 70.903 21.86 70.813 21.44C70.523 21.83 70.083 22.11 69.333 22.11C68.353 22.11 67.553 21.53 67.553 20.56C67.553 19.56 68.463 18.99 69.593 18.99C70.143 18.99 70.523 19.08 70.793 19.18V18.71C70.793 18 70.303 17.64 69.563 17.64C68.913 17.64 68.243 17.91 67.863 18.26V17.41C68.163 17.15 68.813 16.85 69.633 16.85C70.883 16.85 71.643 17.56 71.643 18.66V21.01C71.643 21.26 71.793 21.38 72.023 21.38C72.123 21.38 72.213 21.36 72.283 21.32V21.98ZM68.423 20.56C68.423 21.05 68.813 21.36 69.463 21.36C70.113 21.36 70.513 21.12 70.793 20.77V19.87C70.493 19.77 70.113 19.69 69.633 19.69C68.983 19.69 68.423 19.99 68.423 20.56ZM73.2634 22V16.96H76.6834V17.73H74.1234V22H73.2634ZM77.7459 23.91V16.96H78.5759V17.66C78.8359 17.25 79.3159 16.85 80.1459 16.85C81.3159 16.85 82.3259 17.8 82.3259 19.48C82.3259 21.16 81.3159 22.11 80.1459 22.11C79.3559 22.11 78.8759 21.74 78.6059 21.36V23.91H77.7459ZM78.6059 20.66C78.9359 21.07 79.4359 21.33 80.0059 21.33C80.8959 21.33 81.4559 20.59 81.4559 19.48C81.4559 18.38 80.8959 17.63 80.0059 17.63C79.4359 17.63 78.9359 17.89 78.6059 18.3V20.66ZM86.7488 16.96H87.6388L85.7688 21.76C85.2288 23.15 84.5688 24.08 83.4888 24.08C83.2188 24.08 82.9988 24.01 82.8988 23.96V23.17C83.0088 23.24 83.1588 23.29 83.3787 23.29C84.0188 23.29 84.4088 22.8 84.7988 21.96L82.8688 16.96H83.7988L85.2688 20.92L86.7488 16.96ZM88.3671 17.38C88.6771 17.1 89.4271 16.85 90.1471 16.85C91.3271 16.85 92.0571 17.42 92.0571 18.25C92.0571 18.87 91.6571 19.23 91.1971 19.36C91.6971 19.43 92.2571 19.84 92.2571 20.55C92.2571 21.56 91.3071 22.11 90.1471 22.11C89.2871 22.11 88.5971 21.82 88.2871 21.52V20.65C88.6671 21.02 89.4371 21.34 90.1171 21.34C90.8771 21.34 91.3971 21.09 91.3971 20.54C91.3971 20.05 90.9771 19.8 90.2571 19.8H89.4371V19.06H90.1771C90.7971 19.06 91.1971 18.8 91.1971 18.35C91.1971 17.88 90.7671 17.62 90.0771 17.62C89.4171 17.62 88.6971 17.93 88.3671 18.24V17.38ZM97.709 16.96V22H96.859V18.26L94.289 22H93.449V16.96H94.299V20.69L96.869 16.96H97.709ZM98.7712 17.73V16.96H103.121V17.73H101.371V22H100.511V17.73H98.7712ZM103.667 19.45C103.667 17.9 104.627 16.85 105.987 16.85C107.307 16.85 108.157 17.84 108.157 19.18V19.73H104.567C104.567 20.53 105.247 21.32 106.397 21.32C107.147 21.32 107.717 21.04 108.097 20.71V21.58C107.787 21.84 107.167 22.11 106.347 22.11C104.767 22.11 103.667 21.06 103.667 19.45ZM104.567 19.01H107.307C107.267 18.25 106.777 17.62 105.977 17.62C105.167 17.62 104.647 18.21 104.567 19.01ZM111.613 22V16.96H113.853C114.903 16.96 115.433 17.53 115.433 18.25C115.433 18.82 115.113 19.18 114.693 19.31C115.173 19.43 115.643 19.84 115.643 20.56C115.643 21.37 115.033 22 113.953 22H111.613ZM112.463 21.25H113.883C114.423 21.25 114.783 20.99 114.783 20.51C114.783 20.03 114.423 19.77 113.883 19.77H112.463V21.25ZM112.463 19.05H113.773C114.263 19.05 114.583 18.8 114.583 18.37C114.583 17.94 114.263 17.69 113.773 17.69H112.463V19.05Z" fill="#A5A8AD"/>
<path fill-rule="evenodd" clip-rule="evenodd" d="M27.2232 16.1651C27.0797 16.4686 27 16.8466 27 17.2904L27 41.6722C27 42.1167 27.0797 42.4946 27.2233 42.7979L40.4643 29.4805L27.2232 16.1651ZM27.9148 43.5206C28.4098 43.757 29.0669 43.6994 29.7857 43.2895L45.3511 34.3948L41.1694 30.1896L27.9148 43.5206ZM46.251 33.8817L51.1644 31.0744C52.696 30.1979 52.696 28.7658 51.1644 27.8905L46.2484 25.0814L41.8745 29.4805L46.251 33.8817ZM45.3491 24.5675L29.7857 15.6742C29.0671 15.2636 28.4101 15.2064 27.9153 15.4428L41.1693 28.7714L45.3491 24.5675Z" fill="#A5A8AD"/>
</svg>
