<svg width="21" height="20" viewBox="0 0 21 20" fill="none" xmlns="http://www.w3.org/2000/svg">
<path d="M18.2929 6.70495C18.2553 5.85462 18.1178 5.27008 17.9208 4.76351C17.7176 4.22583 17.405 3.74446 16.9955 3.34427C16.5953 2.93786 16.1107 2.62205 15.5792 2.42204C15.0698 2.22509 14.4883 2.08753 13.638 2.05008C12.7813 2.00938 12.5093 2 10.3366 2C8.16389 2 7.89194 2.00938 7.03845 2.04689C6.18815 2.08441 5.60358 2.22202 5.09716 2.41885C4.55933 2.62205 4.07796 2.93468 3.67777 3.34427C3.27136 3.74443 2.95571 4.22899 2.75554 4.76045C2.55858 5.27008 2.42106 5.8515 2.38358 6.70177C2.34291 7.55844 2.3335 7.83039 2.3335 10.0031C2.3335 12.1758 2.34291 12.4478 2.38039 13.3013C2.4179 14.1516 2.55552 14.7361 2.7525 15.2427C2.95571 15.7804 3.27136 16.2618 3.67777 16.662C4.07796 17.0684 4.56252 17.3842 5.09398 17.5842C5.60355 17.7811 6.18496 17.9187 7.03542 17.9561C7.88875 17.9938 8.16085 18.003 10.3336 18.003C12.5063 18.003 12.7782 17.9938 13.6317 17.9561C14.482 17.9187 15.0666 17.7812 15.573 17.5842C16.1049 17.3785 16.5879 17.064 16.9912 16.6608C17.3944 16.2576 17.709 15.7746 17.9146 15.2427C18.1115 14.7331 18.2491 14.1516 18.2866 13.3013C18.3241 12.4478 18.3335 12.1758 18.3335 10.0031C18.3335 7.83039 18.3303 7.55841 18.2929 6.70495ZM16.8517 13.2387C16.8173 14.0203 16.686 14.4423 16.5766 14.7237C16.3077 15.4208 15.7544 15.9742 15.0572 16.2431C14.7758 16.3525 14.3508 16.4838 13.5722 16.5181C12.7282 16.5557 12.475 16.565 10.3398 16.565C8.20456 16.565 7.94824 16.5557 7.10719 16.5181C6.32564 16.4838 5.9036 16.3525 5.62224 16.2431C5.27533 16.1149 4.95955 15.9117 4.7032 15.6459C4.43747 15.3865 4.23427 15.0738 4.10603 14.7269C3.99661 14.4455 3.86534 14.0203 3.83105 13.2419C3.79341 12.3979 3.78415 12.1446 3.78415 10.0093C3.78415 7.8741 3.79341 7.61778 3.83105 6.77689C3.86534 5.99533 3.99661 5.5733 4.10603 5.29194C4.23427 4.94486 4.43747 4.62915 4.70639 4.37274C4.96574 4.10701 5.27836 3.9038 5.62543 3.77572C5.90679 3.6663 6.33202 3.535 7.11038 3.50058C7.95446 3.46307 8.20775 3.45369 10.3428 3.45369C12.4813 3.45369 12.7344 3.46307 13.5754 3.50058C14.357 3.53503 14.779 3.66627 15.0604 3.77569C15.4073 3.9038 15.7231 4.10701 15.9794 4.37274C16.2452 4.63224 16.4484 4.94486 16.5766 5.29194C16.686 5.5733 16.8173 5.99837 16.8517 6.77689C16.8892 7.62097 16.8986 7.8741 16.8986 10.0093C16.8986 12.1446 16.8892 12.3947 16.8517 13.2387Z" fill="#1D3BCC"/>
<path d="M10.3366 5.89214C8.06707 5.89214 6.22567 7.73342 6.22567 10.0031C6.22567 12.2728 8.06707 14.1141 10.3366 14.1141C12.6063 14.1141 14.4476 12.2728 14.4476 10.0031C14.4476 7.73342 12.6063 5.89214 10.3366 5.89214ZM10.3366 12.6698C8.86426 12.6698 7.66992 11.4756 7.66992 10.0031C7.66992 8.5306 8.86426 7.33645 10.3366 7.33645C11.8091 7.33645 13.0033 8.5306 13.0033 10.0031C13.0033 11.4756 11.8091 12.6698 10.3366 12.6698ZM15.57 5.72957C15.57 6.25959 15.1402 6.68932 14.6101 6.68932C14.0801 6.68932 13.6504 6.25959 13.6504 5.72957C13.6504 5.19949 14.0801 4.76989 14.6101 4.76989C15.1402 4.76989 15.57 5.19946 15.57 5.72957Z" fill="#1D3BCC"/>
</svg>
