<svg width="88" height="36" viewBox="0 0 88 36" fill="none" xmlns="http://www.w3.org/2000/svg">
<path fill-rule="evenodd" clip-rule="evenodd" d="M48.6404 0C49.4509 0 50.2432 0.240338 50.9171 0.690622C51.591 1.14091 52.1162 1.78091 52.4264 2.52971C52.7365 3.2785 52.8177 4.10245 52.6596 4.89737C52.5014 5.69228 52.1111 6.42246 51.538 6.99556C50.9649 7.56867 50.2348 7.95895 49.4399 8.11707C48.6449 8.27519 47.821 8.19404 47.0722 7.88388C46.3234 7.57372 45.6834 7.04848 45.2331 6.37458C44.7828 5.70068 44.5425 4.9084 44.5425 4.09791C44.5425 3.01107 44.9742 1.96876 45.7427 1.20025C46.5112 0.431742 47.5536 0 48.6404 0Z" fill="#061F99"/>
<path fill-rule="evenodd" clip-rule="evenodd" d="M85.3755 29.2199H80.7431C81.2848 27.488 82.7564 22.0147 81.4024 17.3324C79.4282 10.4978 69.2476 6.38205 54.4738 5.452C54.5755 5.01748 54.6269 4.57269 54.627 4.12642C54.627 4.05871 54.627 3.98744 54.627 3.91974C71.4035 4.47563 83.5582 8.55215 86.6227 15.5614C89.1492 21.3376 86.3519 27.3918 85.3684 29.2199H85.3755ZM43.0673 4.12642C43.0683 4.53243 43.1113 4.93724 43.1956 5.33441C31.162 5.77271 17.2006 7.90362 2.64415 11.9089C1.87802 12.1156 1.11545 12.3365 0.356445 12.5539V11.72C1.69391 11.3209 3.04919 10.9325 4.42228 10.5548C18.0131 6.81678 31.276 4.70369 43.0709 4.06227C43.0691 4.08362 43.0691 4.10507 43.0709 4.12642H43.0673Z" fill="#EB2343"/>
<path fill-rule="evenodd" clip-rule="evenodd" d="M0.470474 16.0353L0.356445 19.5274C0.876701 19.5025 1.35776 19.4775 1.79962 19.449C2.24148 19.4205 3.06106 19.4134 4.26906 19.4134C4.26906 20.8886 4.22154 22.4328 4.12652 24.0458C4.0315 25.6588 3.8949 27.2647 3.71673 28.8635H8.70549C8.70549 27.1174 8.74706 25.464 8.8302 23.9033C8.91335 22.3425 9.01906 20.8459 9.14735 19.4134C9.45024 19.4134 10.3304 19.4454 11.7807 19.5096C12.0729 19.5096 12.4934 19.5096 13.0386 19.5096L13.1847 16.0353H0.470474Z" fill="#061F99"/>
<path fill-rule="evenodd" clip-rule="evenodd" d="M14.61 19.8054C14.5839 20.2353 14.5067 21.2628 14.3784 22.8877C14.2952 23.8641 14.2537 24.6314 14.2537 25.1896C14.2523 25.6991 14.3829 26.2002 14.6327 26.6442C14.8825 27.0881 15.2429 27.4599 15.679 27.7232C16.7908 28.4834 18.481 28.8635 20.7497 28.8635C22.6502 28.8635 24.1694 28.5784 25.3073 28.0083C26.1399 27.6244 26.8216 26.9752 27.2458 26.1625C27.5217 25.6095 27.661 24.9986 27.652 24.3808C27.652 23.6823 27.7031 22.5017 27.8053 20.8387C27.9074 19.1758 28.0226 17.5747 28.1509 16.0353H23.1158C23.1158 16.9855 23.0707 18.222 22.9804 19.7448C22.913 21.0574 22.7786 22.3656 22.5778 23.6645C22.5352 24.1235 22.3537 24.5586 22.0575 24.9117C21.6946 25.1859 21.2416 25.3132 20.7889 25.268C20.5601 25.2872 20.3301 25.2467 20.1215 25.1505C19.9129 25.0544 19.7328 24.9058 19.5988 24.7193C19.3359 24.2609 19.2121 23.7359 19.2424 23.2084C19.2424 22.586 19.3196 21.4445 19.474 19.784C19.6273 18.1199 19.7057 16.8727 19.7057 16.0353H14.7347C14.7347 17.0877 14.6896 18.3444 14.5993 19.8054H14.61Z" fill="#061F99"/>
<path fill-rule="evenodd" clip-rule="evenodd" d="M37.3908 19.3742C38.0429 19.4775 38.3707 19.7875 38.3707 20.3042C38.3794 20.5369 38.3182 20.7668 38.195 20.9643C38.0718 21.1618 37.8922 21.3179 37.6794 21.4124C37.2553 21.597 36.7946 21.6823 36.3325 21.6619C36.0609 21.6667 35.7896 21.6416 35.5236 21.5871C35.8443 22.7749 36.1519 23.984 36.4465 25.2146C36.6841 26.1648 36.9668 27.3811 37.2946 28.8635H42.4829C42.1479 27.9584 41.8237 27.0462 41.503 26.1268C41.1538 25.1006 40.8461 24.1824 40.58 23.3723C41.3383 23.0567 41.9935 22.5359 42.4722 21.8686C42.9153 21.1961 43.1405 20.4036 43.1172 19.5987C43.1172 18.1472 42.4888 17.1376 41.2321 16.5698C40.2629 16.1796 39.2225 15.9975 38.1783 16.0353H30.5847C30.5847 18.3372 30.5372 20.5786 30.4422 22.7594C30.3472 24.9402 30.1773 26.9749 29.9326 28.8635H34.7967C34.7967 28.0772 34.8252 27.0842 34.8822 25.8845C34.9392 24.6848 34.9962 23.5564 35.0532 22.4993C35.1126 21.4374 35.1423 20.3755 35.1423 19.3136H36.2755C36.6482 19.3075 37.0209 19.3277 37.3908 19.3742Z" fill="#061F99"/>
<path fill-rule="evenodd" clip-rule="evenodd" d="M48.6261 16.1208C47.3023 16.4567 46.0919 17.1393 45.1197 18.0985C44.0222 19.2507 43.4734 20.7604 43.4734 22.6276C43.4734 24.6991 44.287 26.2919 45.9143 27.4061C47.3326 28.3777 49.1321 28.8635 51.3129 28.8635C54.2016 28.8635 56.3705 28.0831 57.8196 26.5224C58.9486 25.3117 59.5554 23.7051 59.5087 22.0503C59.5087 19.9503 58.7212 18.3325 57.1461 17.197C55.754 16.185 53.9664 15.679 51.7832 15.679C50.7155 15.6793 49.6529 15.828 48.6261 16.1208ZM53.6718 19.9907C54.2034 20.5513 54.4916 21.2994 54.4736 22.0717C54.486 22.929 54.1829 23.7609 53.6219 24.4093C53.3561 24.7295 53.0211 24.9854 52.6421 25.1576C52.2632 25.3298 51.8501 25.4138 51.434 25.4035C51.0451 25.4165 50.6576 25.3492 50.2959 25.2058C49.9341 25.0623 49.6059 24.8457 49.3316 24.5696C49.0589 24.2941 48.8453 23.9659 48.7037 23.605C48.5622 23.2442 48.4958 22.8582 48.5085 22.4708C48.4899 21.6033 48.802 20.7612 49.3815 20.1154C49.6578 19.7985 50.0007 19.5466 50.3857 19.3778C50.7708 19.209 51.1884 19.1275 51.6086 19.139C51.9932 19.1271 52.3759 19.1969 52.7315 19.3437C53.0872 19.4905 53.4076 19.711 53.6718 19.9907Z" fill="#061F99"/>
<path fill-rule="evenodd" clip-rule="evenodd" d="M65.2388 25.6565C65.2839 24.4687 65.3457 23.1965 65.4241 21.8401C65.9443 22.9946 66.5144 24.1598 67.1345 25.3464C67.7545 26.533 68.3745 27.7018 68.9981 28.8671H74.7815C74.7815 27.6128 74.8172 26.2313 74.8884 24.7228C74.9597 23.2143 75.0595 21.7438 75.1878 20.3114C75.2662 19.2495 75.3849 17.8241 75.5441 16.0353H70.9723C70.8701 18.4418 70.7727 20.8423 70.6801 23.2369C70.1456 22.0491 69.5849 20.8518 68.9981 19.645C68.3353 18.2743 67.7414 17.071 67.2164 16.0353H61.2905C61.2905 17.3822 61.2513 18.8801 61.1729 20.5287C61.0945 22.1774 60.99 23.8201 60.8593 25.4569C60.7311 27.0961 60.6313 28.2292 60.5671 28.8635H65.1604C65.1604 27.9133 65.1829 26.8442 65.2281 25.6565H65.2388Z" fill="#061F99"/>
<path fill-rule="evenodd" clip-rule="evenodd" d="M5.28095 32.1882L5.3451 31.3579H0.0641412L0 32.1882H2.10597L1.81733 35.9903H2.88279L3.17142 32.1882H5.28095Z" fill="#2B2A29"/>
<path fill-rule="evenodd" clip-rule="evenodd" d="M18.2161 35.9903L18.2838 35.1244H14.3926L14.4852 33.9841H16.7195L16.78 33.1859H14.5494L14.6313 32.1775H18.462L18.5297 31.3579H13.5552L13.1846 35.9903H18.2161Z" fill="#2B2A29"/>
<path fill-rule="evenodd" clip-rule="evenodd" d="M30.5774 35.9903L30.6451 35.1244H27.1708L27.4594 31.3579H26.369L26.0127 35.9903H30.5774Z" fill="#2B2A29"/>
<path fill-rule="evenodd" clip-rule="evenodd" d="M43.1599 35.9903L43.2276 35.1244H39.3364L39.4291 33.9841H41.6633L41.7274 33.1859H39.4932L39.5752 32.1775H43.4094L43.4735 31.3579H38.5026L38.1284 35.9903H43.1599Z" fill="#2B2A29"/>
<path fill-rule="evenodd" clip-rule="evenodd" d="M55.4998 33.0648L56.6152 32.8973L56.6472 32.4483C56.6781 32.301 56.6789 32.149 56.6495 32.0014C56.6201 31.8538 56.5612 31.7137 56.4762 31.5895C56.2105 31.4009 55.8839 31.3183 55.5604 31.3579H52.7596C52.4287 31.325 52.0966 31.4068 51.8188 31.5895C51.6135 31.8277 51.5042 32.1339 51.5124 32.4483L51.3128 34.8928C51.2826 35.0417 51.2828 35.1951 51.3134 35.344C51.344 35.4928 51.4044 35.6338 51.491 35.7587C51.7519 35.946 52.0736 36.0287 52.3925 35.9903H55.1934C55.5265 36.0237 55.861 35.942 56.1412 35.7587C56.3486 35.5186 56.4592 35.2099 56.4513 34.8928L56.494 34.3476L55.425 34.1195L55.3466 35.103H52.3819L52.6099 32.2095H55.5533L55.4856 33.0648H55.4998Z" fill="#2B2A29"/>
<path fill-rule="evenodd" clip-rule="evenodd" d="M65.4632 32.2096H69.1085L68.8805 35.1031H65.2351L65.4632 32.2096ZM64.1411 34.8928C64.109 35.0412 64.1076 35.1946 64.137 35.3435C64.1665 35.4924 64.2261 35.6337 64.3122 35.7587C64.5779 35.9473 64.9045 36.0299 65.228 35.9903H68.7272C69.0604 36.0243 69.3951 35.9425 69.6751 35.7587C69.8838 35.5192 69.9956 35.2104 69.9887 34.8928L70.1775 32.4483C70.2089 32.3013 70.2103 32.1494 70.1815 32.0018C70.1527 31.8543 70.0944 31.714 70.01 31.5895C69.7435 31.3997 69.4153 31.3171 69.0907 31.3579H65.6021C65.2678 31.3231 64.9316 31.4049 64.6507 31.5895C64.4452 31.8279 64.3349 32.1337 64.3407 32.4483L64.1411 34.8928Z" fill="#2B2A29"/>
<path fill-rule="evenodd" clip-rule="evenodd" d="M78.9506 35.9903L79.2036 32.8759L81.11 35.4344H81.3309L83.6329 32.8011L83.3763 35.9903H84.4311L84.8088 31.3579H83.8894L81.3915 34.1089L79.3247 31.3579H78.416L78.0383 35.9903H78.9506Z" fill="#2B2A29"/>
</svg>
