<svg width="20" height="20" viewBox="0 0 20 20" fill="none" xmlns="http://www.w3.org/2000/svg">
<path fill-rule="evenodd" clip-rule="evenodd" d="M10.5965 5.02942C10.5965 5.03835 10.5963 5.04725 10.596 5.05609C13.2367 5.29354 15.4271 7.09355 16.2355 9.52458H16.9502C17.7141 9.52458 18.3333 10.1438 18.3333 10.9077C18.3333 11.6716 17.7141 12.2908 16.9502 12.2908H16.5339C16.1883 15.5942 13.3948 18.1691 9.99998 18.1691C6.60511 18.1691 3.81165 15.5942 3.46608 12.2908H3.04979C2.28589 12.2908 1.66666 11.6716 1.66666 10.9077C1.66666 10.1438 2.28589 9.52458 3.04979 9.52458H3.76443C4.57291 7.0935 6.76335 5.29346 9.40417 5.05607C9.40378 5.04724 9.40359 5.03835 9.40359 5.02942C9.40359 4.21209 8.7427 3.5512 7.92537 3.5512C7.59595 3.5512 7.3289 3.28415 7.3289 2.95472C7.3289 2.6253 7.59595 2.35825 7.92537 2.35825C8.71576 2.35825 9.42554 2.70084 9.91444 3.24575C10.5087 2.29703 11.5633 1.66669 12.7663 1.66669C13.0957 1.66669 13.3628 1.93374 13.3628 2.26316C13.3628 2.59258 13.0957 2.85963 12.7663 2.85963C11.5667 2.85963 10.5965 3.82983 10.5965 5.02942ZM5.81593 10.5026C6.06962 10.7127 6.44563 10.6775 6.65578 10.4238C6.83787 10.204 7.04956 10.1211 7.23379 10.1211C7.41802 10.1211 7.62971 10.204 7.8118 10.4238C8.02195 10.6775 8.39797 10.7127 8.65165 10.5026C8.90534 10.2924 8.94063 9.91642 8.73047 9.66274C8.33967 9.19099 7.80046 8.92811 7.23379 8.92811C6.66712 8.92811 6.12791 9.19099 5.73711 9.66274C5.52696 9.91642 5.56225 10.2924 5.81593 10.5026ZM11.3484 10.5026C11.602 10.7127 11.9781 10.6775 12.1882 10.4238C12.3703 10.204 12.582 10.1211 12.7662 10.1211C12.9505 10.1211 13.1621 10.204 13.3442 10.4238C13.5544 10.6775 13.9304 10.7127 14.1841 10.5026C14.4378 10.2924 14.4731 9.91642 14.2629 9.66274C13.8721 9.19099 13.3329 8.92811 12.7662 8.92811C12.1996 8.92811 11.6603 9.19099 11.2695 9.66274C11.0594 9.91642 11.0947 10.2924 11.3484 10.5026ZM12.8008 12.602C12.8008 14.359 11.5546 15.7832 10.0173 15.7832C8.47998 15.7832 7.23375 14.359 7.23375 12.602H12.8008Z" fill="#FFCC00"/>
</svg>
