<svg width="20" height="20" viewBox="0 0 20 20" fill="none" xmlns="http://www.w3.org/2000/svg">
<path fill-rule="evenodd" clip-rule="evenodd" d="M8.54166 3.33335C8.54166 2.0677 9.56768 1.04169 10.8333 1.04169C12.099 1.04169 13.125 2.0677 13.125 3.33335C13.125 4.59901 12.099 5.62502 10.8333 5.62502C9.56768 5.62502 8.54166 4.59901 8.54166 3.33335ZM14.3692 16.1825C14.2223 16.7107 13.9851 17.163 13.6217 17.5257C12.8876 18.2585 11.7889 18.475 10.4417 18.475H5.175C3.70867 18.475 2.64107 17.9805 1.95325 17.1554C1.28216 16.3504 1.04166 15.3132 1.04166 14.3417V10.6584C1.04166 9.30752 1.25795 8.20819 1.99139 7.47475C2.72483 6.74131 3.82416 6.52502 5.175 6.52502H10.4417C11.7925 6.52502 12.8918 6.74131 13.6253 7.47475C13.9862 7.83571 14.2219 8.2853 14.3682 8.80988L15.9087 7.72931C16.5678 7.26893 17.3442 7.06064 18.0143 7.41059C18.6843 7.76048 18.9583 8.51713 18.9583 9.32502V15.675C18.9583 16.4823 18.6845 17.2402 18.0131 17.589C17.3415 17.9379 16.5651 17.7254 15.9071 17.2612L15.9062 17.2606L14.3692 16.1825ZM5.41666 1.87502C4.38113 1.87502 3.54166 2.71449 3.54166 3.75002C3.54166 4.78555 4.38113 5.62502 5.41666 5.62502C6.4522 5.62502 7.29166 4.78555 7.29166 3.75002C7.29166 2.71449 6.4522 1.87502 5.41666 1.87502Z" fill="#FFCC00"/>
</svg>
