<svg width="120" height="120" viewBox="0 0 120 120" fill="none" xmlns="http://www.w3.org/2000/svg">
<g clip-path="url(#clip0_24_340)">
<path d="M120 0H0V120H120V0Z" fill="white"/>
<path d="M45.5172 8.27588H41.3793V12.4138H45.5172V8.27588Z" fill="black"/>
<path d="M62.069 8.27588H57.931V12.4138H62.069V8.27588Z" fill="black"/>
<path d="M66.2069 8.27588H62.069V12.4138H66.2069V8.27588Z" fill="black"/>
<path d="M78.6207 8.27588H74.4828V12.4138H78.6207V8.27588Z" fill="black"/>
<path d="M45.5172 12.4138H41.3793V16.5517H45.5172V12.4138Z" fill="black"/>
<path d="M49.6551 12.4138H45.5172V16.5517H49.6551V12.4138Z" fill="black"/>
<path d="M53.7931 12.4138H49.6552V16.5517H53.7931V12.4138Z" fill="black"/>
<path d="M57.931 12.4138H53.7931V16.5517H57.931V12.4138Z" fill="black"/>
<path d="M62.069 12.4138H57.931V16.5517H62.069V12.4138Z" fill="black"/>
<path d="M45.5172 16.5518H41.3793V20.6897H45.5172V16.5518Z" fill="black"/>
<path d="M49.6551 16.5518H45.5172V20.6897H49.6551V16.5518Z" fill="black"/>
<path d="M53.7931 16.5518H49.6552V20.6897H53.7931V16.5518Z" fill="black"/>
<path d="M57.931 16.5518H53.7931V20.6897H57.931V16.5518Z" fill="black"/>
<path d="M62.069 16.5518H57.931V20.6897H62.069V16.5518Z" fill="black"/>
<path d="M66.2069 16.5518H62.069V20.6897H66.2069V16.5518Z" fill="black"/>
<path d="M53.7931 20.6897H49.6552V24.8276H53.7931V20.6897Z" fill="black"/>
<path d="M57.931 20.6897H53.7931V24.8276H57.931V20.6897Z" fill="black"/>
<path d="M62.069 20.6897H57.931V24.8276H62.069V20.6897Z" fill="black"/>
<path d="M66.2069 20.6897H62.069V24.8276H66.2069V20.6897Z" fill="black"/>
<path d="M45.5172 24.8276H41.3793V28.9656H45.5172V24.8276Z" fill="black"/>
<path d="M49.6551 24.8276H45.5172V28.9656H49.6551V24.8276Z" fill="black"/>
<path d="M66.2069 24.8276H62.069V28.9656H66.2069V24.8276Z" fill="black"/>
<path d="M70.3448 24.8276H66.2069V28.9656H70.3448V24.8276Z" fill="black"/>
<path d="M78.6207 24.8276H74.4828V28.9656H78.6207V24.8276Z" fill="black"/>
<path d="M49.6551 28.9656H45.5172V33.1035H49.6551V28.9656Z" fill="black"/>
<path d="M53.7931 28.9656H49.6552V33.1035H53.7931V28.9656Z" fill="black"/>
<path d="M57.931 28.9656H53.7931V33.1035H57.931V28.9656Z" fill="black"/>
<path d="M45.5172 33.1034H41.3793V37.2413H45.5172V33.1034Z" fill="black"/>
<path d="M53.7931 33.1034H49.6552V37.2413H53.7931V33.1034Z" fill="black"/>
<path d="M62.069 33.1034H57.931V37.2413H62.069V33.1034Z" fill="black"/>
<path d="M70.3448 33.1034H66.2069V37.2413H70.3448V33.1034Z" fill="black"/>
<path d="M78.6207 33.1034H74.4828V37.2413H78.6207V33.1034Z" fill="black"/>
<path d="M49.6551 37.2413H45.5172V41.3793H49.6551V37.2413Z" fill="black"/>
<path d="M57.931 37.2413H53.7931V41.3793H57.931V37.2413Z" fill="black"/>
<path d="M62.069 37.2413H57.931V41.3793H62.069V37.2413Z" fill="black"/>
<path d="M66.2069 37.2413H62.069V41.3793H66.2069V37.2413Z" fill="black"/>
<path d="M74.4828 37.2413H70.3448V41.3793H74.4828V37.2413Z" fill="black"/>
<path d="M78.6207 37.2413H74.4828V41.3793H78.6207V37.2413Z" fill="black"/>
<path d="M12.4138 41.3793H8.27588V45.5172H12.4138V41.3793Z" fill="black"/>
<path d="M24.8276 41.3793H20.6897V45.5172H24.8276V41.3793Z" fill="black"/>
<path d="M28.9656 41.3793H24.8276V45.5172H28.9656V41.3793Z" fill="black"/>
<path d="M33.1035 41.3793H28.9656V45.5172H33.1035V41.3793Z" fill="black"/>
<path d="M37.2413 41.3793H33.1034V45.5172H37.2413V41.3793Z" fill="black"/>
<path d="M41.3793 41.3793H37.2413V45.5172H41.3793V41.3793Z" fill="black"/>
<path d="M45.5172 41.3793H41.3793V45.5172H45.5172V41.3793Z" fill="black"/>
<path d="M78.6207 41.3793H74.4828V45.5172H78.6207V41.3793Z" fill="black"/>
<path d="M82.7587 41.3793H78.6207V45.5172H82.7587V41.3793Z" fill="black"/>
<path d="M95.1724 41.3793H91.0344V45.5172H95.1724V41.3793Z" fill="black"/>
<path d="M103.448 41.3793H99.3103V45.5172H103.448V41.3793Z" fill="black"/>
<path d="M107.586 41.3793H103.448V45.5172H107.586V41.3793Z" fill="black"/>
<path d="M111.724 41.3793H107.586V45.5172H111.724V41.3793Z" fill="black"/>
<path d="M20.6897 45.5172H16.5518V49.6551H20.6897V45.5172Z" fill="black"/>
<path d="M24.8276 45.5172H20.6897V49.6551H24.8276V45.5172Z" fill="black"/>
<path d="M41.3793 45.5172H37.2413V49.6551H41.3793V45.5172Z" fill="black"/>
<path d="M45.5172 45.5172H41.3793V49.6551H45.5172V45.5172Z" fill="black"/>
<path d="M57.931 45.5172H53.7931V49.6551H57.931V45.5172Z" fill="black"/>
<path d="M62.069 45.5172H57.931V49.6551H62.069V45.5172Z" fill="black"/>
<path d="M74.4828 45.5172H70.3448V49.6551H74.4828V45.5172Z" fill="black"/>
<path d="M78.6207 45.5172H74.4828V49.6551H78.6207V45.5172Z" fill="black"/>
<path d="M82.7587 45.5172H78.6207V49.6551H82.7587V45.5172Z" fill="black"/>
<path d="M91.0345 45.5172H86.8966V49.6551H91.0345V45.5172Z" fill="black"/>
<path d="M95.1724 45.5172H91.0344V49.6551H95.1724V45.5172Z" fill="black"/>
<path d="M99.3103 45.5172H95.1724V49.6551H99.3103V45.5172Z" fill="black"/>
<path d="M103.448 45.5172H99.3103V49.6551H103.448V45.5172Z" fill="black"/>
<path d="M107.586 45.5172H103.448V49.6551H107.586V45.5172Z" fill="black"/>
<path d="M16.5517 49.6552H12.4138V53.7931H16.5517V49.6552Z" fill="black"/>
<path d="M20.6897 49.6552H16.5518V53.7931H20.6897V49.6552Z" fill="black"/>
<path d="M28.9656 49.6552H24.8276V53.7931H28.9656V49.6552Z" fill="black"/>
<path d="M37.2413 49.6552H33.1034V53.7931H37.2413V49.6552Z" fill="black"/>
<path d="M53.7931 49.6552H49.6552V53.7931H53.7931V49.6552Z" fill="black"/>
<path d="M62.069 49.6552H57.931V53.7931H62.069V49.6552Z" fill="black"/>
<path d="M66.2069 49.6552H62.069V53.7931H66.2069V49.6552Z" fill="black"/>
<path d="M74.4828 49.6552H70.3448V53.7931H74.4828V49.6552Z" fill="black"/>
<path d="M78.6207 49.6552H74.4828V53.7931H78.6207V49.6552Z" fill="black"/>
<path d="M86.8966 49.6552H82.7587V53.7931H86.8966V49.6552Z" fill="black"/>
<path d="M95.1724 49.6552H91.0344V53.7931H95.1724V49.6552Z" fill="black"/>
<path d="M99.3103 49.6552H95.1724V53.7931H99.3103V49.6552Z" fill="black"/>
<path d="M111.724 49.6552H107.586V53.7931H111.724V49.6552Z" fill="black"/>
<path d="M16.5517 53.7931H12.4138V57.931H16.5517V53.7931Z" fill="black"/>
<path d="M20.6897 53.7931H16.5518V57.931H20.6897V53.7931Z" fill="black"/>
<path d="M24.8276 53.7931H20.6897V57.931H24.8276V53.7931Z" fill="black"/>
<path d="M33.1035 53.7931H28.9656V57.931H33.1035V53.7931Z" fill="black"/>
<path d="M41.3793 53.7931H37.2413V57.931H41.3793V53.7931Z" fill="black"/>
<path d="M45.5172 53.7931H41.3793V57.931H45.5172V53.7931Z" fill="black"/>
<path d="M53.7931 53.7931H49.6552V57.931H53.7931V53.7931Z" fill="black"/>
<path d="M57.931 53.7931H53.7931V57.931H57.931V53.7931Z" fill="black"/>
<path d="M62.069 53.7931H57.931V57.931H62.069V53.7931Z" fill="black"/>
<path d="M74.4828 53.7931H70.3448V57.931H74.4828V53.7931Z" fill="black"/>
<path d="M78.6207 53.7931H74.4828V57.931H78.6207V53.7931Z" fill="black"/>
<path d="M91.0345 53.7931H86.8966V57.931H91.0345V53.7931Z" fill="black"/>
<path d="M99.3103 53.7931H95.1724V57.931H99.3103V53.7931Z" fill="black"/>
<path d="M103.448 53.7931H99.3103V57.931H103.448V53.7931Z" fill="black"/>
<path d="M107.586 53.7931H103.448V57.931H107.586V53.7931Z" fill="black"/>
<path d="M111.724 53.7931H107.586V57.931H111.724V53.7931Z" fill="black"/>
<path d="M16.5517 57.931H12.4138V62.069H16.5517V57.931Z" fill="black"/>
<path d="M28.9656 57.931H24.8276V62.069H28.9656V57.931Z" fill="black"/>
<path d="M33.1035 57.931H28.9656V62.069H33.1035V57.931Z" fill="black"/>
<path d="M37.2413 57.931H33.1034V62.069H37.2413V57.931Z" fill="black"/>
<path d="M49.6551 57.931H45.5172V62.069H49.6551V57.931Z" fill="black"/>
<path d="M53.7931 57.931H49.6552V62.069H53.7931V57.931Z" fill="black"/>
<path d="M57.931 57.931H53.7931V62.069H57.931V57.931Z" fill="black"/>
<path d="M74.4828 57.931H70.3448V62.069H74.4828V57.931Z" fill="black"/>
<path d="M78.6207 57.931H74.4828V62.069H78.6207V57.931Z" fill="black"/>
<path d="M82.7587 57.931H78.6207V62.069H82.7587V57.931Z" fill="black"/>
<path d="M86.8966 57.931H82.7587V62.069H86.8966V57.931Z" fill="black"/>
<path d="M111.724 57.931H107.586V62.069H111.724V57.931Z" fill="black"/>
<path d="M12.4138 62.069H8.27588V66.2069H12.4138V62.069Z" fill="black"/>
<path d="M28.9656 62.069H24.8276V66.2069H28.9656V62.069Z" fill="black"/>
<path d="M33.1035 62.069H28.9656V66.2069H33.1035V62.069Z" fill="black"/>
<path d="M41.3793 62.069H37.2413V66.2069H41.3793V62.069Z" fill="black"/>
<path d="M45.5172 62.069H41.3793V66.2069H45.5172V62.069Z" fill="black"/>
<path d="M53.7931 62.069H49.6552V66.2069H53.7931V62.069Z" fill="black"/>
<path d="M62.069 62.069H57.931V66.2069H62.069V62.069Z" fill="black"/>
<path d="M66.2069 62.069H62.069V66.2069H66.2069V62.069Z" fill="black"/>
<path d="M70.3448 62.069H66.2069V66.2069H70.3448V62.069Z" fill="black"/>
<path d="M74.4828 62.069H70.3448V66.2069H74.4828V62.069Z" fill="black"/>
<path d="M78.6207 62.069H74.4828V66.2069H78.6207V62.069Z" fill="black"/>
<path d="M91.0345 62.069H86.8966V66.2069H91.0345V62.069Z" fill="black"/>
<path d="M95.1724 62.069H91.0344V66.2069H95.1724V62.069Z" fill="black"/>
<path d="M107.586 62.069H103.448V66.2069H107.586V62.069Z" fill="black"/>
<path d="M12.4138 66.2069H8.27588V70.3448H12.4138V66.2069Z" fill="black"/>
<path d="M16.5517 66.2069H12.4138V70.3448H16.5517V66.2069Z" fill="black"/>
<path d="M24.8276 66.2069H20.6897V70.3448H24.8276V66.2069Z" fill="black"/>
<path d="M37.2413 66.2069H33.1034V70.3448H37.2413V66.2069Z" fill="black"/>
<path d="M66.2069 66.2069H62.069V70.3448H66.2069V66.2069Z" fill="black"/>
<path d="M70.3448 66.2069H66.2069V70.3448H70.3448V66.2069Z" fill="black"/>
<path d="M74.4828 66.2069H70.3448V70.3448H74.4828V66.2069Z" fill="black"/>
<path d="M82.7587 66.2069H78.6207V70.3448H82.7587V66.2069Z" fill="black"/>
<path d="M95.1724 66.2069H91.0344V70.3448H95.1724V66.2069Z" fill="black"/>
<path d="M99.3103 66.2069H95.1724V70.3448H99.3103V66.2069Z" fill="black"/>
<path d="M103.448 66.2069H99.3103V70.3448H103.448V66.2069Z" fill="black"/>
<path d="M107.586 66.2069H103.448V70.3448H107.586V66.2069Z" fill="black"/>
<path d="M111.724 66.2069H107.586V70.3448H111.724V66.2069Z" fill="black"/>
<path d="M12.4138 70.3448H8.27588V74.4828H12.4138V70.3448Z" fill="black"/>
<path d="M24.8276 70.3448H20.6897V74.4828H24.8276V70.3448Z" fill="black"/>
<path d="M28.9656 70.3448H24.8276V74.4828H28.9656V70.3448Z" fill="black"/>
<path d="M49.6551 70.3448H45.5172V74.4828H49.6551V70.3448Z" fill="black"/>
<path d="M62.069 70.3448H57.931V74.4828H62.069V70.3448Z" fill="black"/>
<path d="M74.4828 70.3448H70.3448V74.4828H74.4828V70.3448Z" fill="black"/>
<path d="M91.0345 70.3448H86.8966V74.4828H91.0345V70.3448Z" fill="black"/>
<path d="M99.3103 70.3448H95.1724V74.4828H99.3103V70.3448Z" fill="black"/>
<path d="M103.448 70.3448H99.3103V74.4828H103.448V70.3448Z" fill="black"/>
<path d="M111.724 70.3448H107.586V74.4828H111.724V70.3448Z" fill="black"/>
<path d="M12.4138 74.4828H8.27588V78.6207H12.4138V74.4828Z" fill="black"/>
<path d="M28.9656 74.4828H24.8276V78.6207H28.9656V74.4828Z" fill="black"/>
<path d="M37.2413 74.4828H33.1034V78.6207H37.2413V74.4828Z" fill="black"/>
<path d="M45.5172 74.4828H41.3793V78.6207H45.5172V74.4828Z" fill="black"/>
<path d="M57.931 74.4828H53.7931V78.6207H57.931V74.4828Z" fill="black"/>
<path d="M62.069 74.4828H57.931V78.6207H62.069V74.4828Z" fill="black"/>
<path d="M66.2069 74.4828H62.069V78.6207H66.2069V74.4828Z" fill="black"/>
<path d="M70.3448 74.4828H66.2069V78.6207H70.3448V74.4828Z" fill="black"/>
<path d="M78.6207 74.4828H74.4828V78.6207H78.6207V74.4828Z" fill="black"/>
<path d="M82.7587 74.4828H78.6207V78.6207H82.7587V74.4828Z" fill="black"/>
<path d="M86.8966 74.4828H82.7587V78.6207H86.8966V74.4828Z" fill="black"/>
<path d="M91.0345 74.4828H86.8966V78.6207H91.0345V74.4828Z" fill="black"/>
<path d="M95.1724 74.4828H91.0344V78.6207H95.1724V74.4828Z" fill="black"/>
<path d="M103.448 74.4828H99.3103V78.6207H103.448V74.4828Z" fill="black"/>
<path d="M107.586 74.4828H103.448V78.6207H107.586V74.4828Z" fill="black"/>
<path d="M45.5172 78.6207H41.3793V82.7587H45.5172V78.6207Z" fill="black"/>
<path d="M49.6551 78.6207H45.5172V82.7587H49.6551V78.6207Z" fill="black"/>
<path d="M53.7931 78.6207H49.6552V82.7587H53.7931V78.6207Z" fill="black"/>
<path d="M57.931 78.6207H53.7931V82.7587H57.931V78.6207Z" fill="black"/>
<path d="M70.3448 78.6207H66.2069V82.7587H70.3448V78.6207Z" fill="black"/>
<path d="M78.6207 78.6207H74.4828V82.7587H78.6207V78.6207Z" fill="black"/>
<path d="M95.1724 78.6207H91.0344V82.7587H95.1724V78.6207Z" fill="black"/>
<path d="M103.448 78.6207H99.3103V82.7587H103.448V78.6207Z" fill="black"/>
<path d="M107.586 78.6207H103.448V82.7587H107.586V78.6207Z" fill="black"/>
<path d="M45.5172 82.7587H41.3793V86.8966H45.5172V82.7587Z" fill="black"/>
<path d="M49.6551 82.7587H45.5172V86.8966H49.6551V82.7587Z" fill="black"/>
<path d="M53.7931 82.7587H49.6552V86.8966H53.7931V82.7587Z" fill="black"/>
<path d="M62.069 82.7587H57.931V86.8966H62.069V82.7587Z" fill="black"/>
<path d="M66.2069 82.7587H62.069V86.8966H66.2069V82.7587Z" fill="black"/>
<path d="M78.6207 82.7587H74.4828V86.8966H78.6207V82.7587Z" fill="black"/>
<path d="M86.8966 82.7587H82.7587V86.8966H86.8966V82.7587Z" fill="black"/>
<path d="M95.1724 82.7587H91.0344V86.8966H95.1724V82.7587Z" fill="black"/>
<path d="M111.724 82.7587H107.586V86.8966H111.724V82.7587Z" fill="black"/>
<path d="M45.5172 86.8966H41.3793V91.0345H45.5172V86.8966Z" fill="black"/>
<path d="M49.6551 86.8966H45.5172V91.0345H49.6551V86.8966Z" fill="black"/>
<path d="M53.7931 86.8966H49.6552V91.0345H53.7931V86.8966Z" fill="black"/>
<path d="M57.931 86.8966H53.7931V91.0345H57.931V86.8966Z" fill="black"/>
<path d="M66.2069 86.8966H62.069V91.0345H66.2069V86.8966Z" fill="black"/>
<path d="M78.6207 86.8966H74.4828V91.0345H78.6207V86.8966Z" fill="black"/>
<path d="M95.1724 86.8966H91.0344V91.0345H95.1724V86.8966Z" fill="black"/>
<path d="M45.5172 91.0344H41.3793V95.1724H45.5172V91.0344Z" fill="black"/>
<path d="M53.7931 91.0344H49.6552V95.1724H53.7931V91.0344Z" fill="black"/>
<path d="M57.931 91.0344H53.7931V95.1724H57.931V91.0344Z" fill="black"/>
<path d="M66.2069 91.0344H62.069V95.1724H66.2069V91.0344Z" fill="black"/>
<path d="M74.4828 91.0344H70.3448V95.1724H74.4828V91.0344Z" fill="black"/>
<path d="M78.6207 91.0344H74.4828V95.1724H78.6207V91.0344Z" fill="black"/>
<path d="M82.7587 91.0344H78.6207V95.1724H82.7587V91.0344Z" fill="black"/>
<path d="M86.8966 91.0344H82.7587V95.1724H86.8966V91.0344Z" fill="black"/>
<path d="M91.0345 91.0344H86.8966V95.1724H91.0345V91.0344Z" fill="black"/>
<path d="M95.1724 91.0344H91.0344V95.1724H95.1724V91.0344Z" fill="black"/>
<path d="M107.586 91.0344H103.448V95.1724H107.586V91.0344Z" fill="black"/>
<path d="M111.724 91.0344H107.586V95.1724H111.724V91.0344Z" fill="black"/>
<path d="M45.5172 95.1724H41.3793V99.3103H45.5172V95.1724Z" fill="black"/>
<path d="M62.069 95.1724H57.931V99.3103H62.069V95.1724Z" fill="black"/>
<path d="M66.2069 95.1724H62.069V99.3103H66.2069V95.1724Z" fill="black"/>
<path d="M70.3448 95.1724H66.2069V99.3103H70.3448V95.1724Z" fill="black"/>
<path d="M82.7587 95.1724H78.6207V99.3103H82.7587V95.1724Z" fill="black"/>
<path d="M86.8966 95.1724H82.7587V99.3103H86.8966V95.1724Z" fill="black"/>
<path d="M107.586 95.1724H103.448V99.3103H107.586V95.1724Z" fill="black"/>
<path d="M111.724 95.1724H107.586V99.3103H111.724V95.1724Z" fill="black"/>
<path d="M49.6551 99.3103H45.5172V103.448H49.6551V99.3103Z" fill="black"/>
<path d="M57.931 99.3103H53.7931V103.448H57.931V99.3103Z" fill="black"/>
<path d="M66.2069 99.3103H62.069V103.448H66.2069V99.3103Z" fill="black"/>
<path d="M74.4828 99.3103H70.3448V103.448H74.4828V99.3103Z" fill="black"/>
<path d="M78.6207 99.3103H74.4828V103.448H78.6207V99.3103Z" fill="black"/>
<path d="M95.1724 99.3103H91.0344V103.448H95.1724V99.3103Z" fill="black"/>
<path d="M99.3103 99.3103H95.1724V103.448H99.3103V99.3103Z" fill="black"/>
<path d="M103.448 99.3103H99.3103V103.448H103.448V99.3103Z" fill="black"/>
<path d="M107.586 99.3103H103.448V103.448H107.586V99.3103Z" fill="black"/>
<path d="M111.724 99.3103H107.586V103.448H111.724V99.3103Z" fill="black"/>
<path d="M57.931 103.448H53.7931V107.586H57.931V103.448Z" fill="black"/>
<path d="M62.069 103.448H57.931V107.586H62.069V103.448Z" fill="black"/>
<path d="M66.2069 103.448H62.069V107.586H66.2069V103.448Z" fill="black"/>
<path d="M74.4828 103.448H70.3448V107.586H74.4828V103.448Z" fill="black"/>
<path d="M86.8966 103.448H82.7587V107.586H86.8966V103.448Z" fill="black"/>
<path d="M91.0345 103.448H86.8966V107.586H91.0345V103.448Z" fill="black"/>
<path d="M95.1724 103.448H91.0344V107.586H95.1724V103.448Z" fill="black"/>
<path d="M103.448 103.448H99.3103V107.586H103.448V103.448Z" fill="black"/>
<path d="M107.586 103.448H103.448V107.586H107.586V103.448Z" fill="black"/>
<path d="M111.724 103.448H107.586V107.586H111.724V103.448Z" fill="black"/>
<path d="M45.5172 107.586H41.3793V111.724H45.5172V107.586Z" fill="black"/>
<path d="M49.6551 107.586H45.5172V111.724H49.6551V107.586Z" fill="black"/>
<path d="M53.7931 107.586H49.6552V111.724H53.7931V107.586Z" fill="black"/>
<path d="M57.931 107.586H53.7931V111.724H57.931V107.586Z" fill="black"/>
<path d="M62.069 107.586H57.931V111.724H62.069V107.586Z" fill="black"/>
<path d="M66.2069 107.586H62.069V111.724H66.2069V107.586Z" fill="black"/>
<path d="M78.6207 107.586H74.4828V111.724H78.6207V107.586Z" fill="black"/>
<path d="M86.8966 107.586H82.7587V111.724H86.8966V107.586Z" fill="black"/>
<path d="M99.3103 107.586H95.1724V111.724H99.3103V107.586Z" fill="black"/>
<path d="M111.724 107.586H107.586V111.724H111.724V107.586Z" fill="black"/>
<path d="M32.8966 8.27588H8.27588V37.2414H37.2414V8.27588H32.8966ZM32.8966 32.8966H12.6207V12.6207H32.8966V32.8966Z" fill="black"/>
<path d="M107.379 8.27588H82.7587V37.2414H111.724V8.27588H107.379ZM107.379 32.8966H87.1035V12.6207H107.379V32.8966Z" fill="black"/>
<path d="M32.8966 82.7587H8.27588V111.724H37.2414V82.7587H32.8966ZM32.8966 107.379H12.6207V87.1035H32.8966V107.379Z" fill="black"/>
<path d="M28.9656 16.5518H16.5518V28.9656H28.9656V16.5518Z" fill="black"/>
<path d="M103.448 16.5518H91.0344V28.9656H103.448V16.5518Z" fill="black"/>
<path d="M28.9656 91.0344H16.5518V103.448H28.9656V91.0344Z" fill="black"/>
</g>
<defs>
<clipPath id="clip0_24_340">
<rect width="120" height="120" fill="white"/>
</clipPath>
</defs>
</svg>
