<svg width="150" height="60" viewBox="0 0 150 60" fill="none" xmlns="http://www.w3.org/2000/svg">
<rect x="0.5" y="0.5" width="149" height="59" rx="7.5" stroke="white"/>
<g clip-path="url(#clip0_1_936)">
<path d="M38.688 12.0648C37.5169 12.0643 36.372 12.411 35.3978 13.0611C34.4237 13.7111 33.6642 14.6353 33.2151 15.7169C32.7661 16.7985 32.6478 17.9889 32.8751 19.1377C33.1024 20.2865 33.6651 21.3422 34.4922 22.1713C35.3193 23.0004 36.3736 23.5657 37.5218 23.7958C38.6701 24.0259 39.8608 23.9104 40.9435 23.464C42.0261 23.0176 42.9522 22.2603 43.6046 21.2877C44.257 20.3152 44.6064 19.1711 44.6088 18C44.6104 17.2214 44.4584 16.45 44.1616 15.7302C43.8648 15.0103 43.429 14.356 42.879 13.8048C42.3291 13.2535 41.6759 12.8161 40.9567 12.5175C40.2376 12.219 39.4667 12.0651 38.688 12.0648Z" fill="white"/>
<path d="M25.4616 12.0648C24.6321 12.0634 23.815 12.2663 23.0825 12.6556C22.35 13.0449 21.7246 13.6085 21.2616 14.2968C20.6582 13.3995 19.7832 12.719 18.765 12.3551C17.7467 11.9912 16.6387 11.9629 15.6032 12.2744C14.5677 12.586 13.6592 13.2209 13.0108 14.0863C12.3624 14.9516 12.0082 16.0019 12 17.0832V17.1288V23.5632H13.7328V17.1024C13.7363 16.2183 14.0909 15.3717 14.7185 14.749C15.3462 14.1263 16.1955 13.7785 17.0796 13.782C17.9637 13.7855 18.8102 14.1401 19.4329 14.7677C20.0556 15.3953 20.4035 16.2447 20.4 17.1288V23.5632H22.128V17.1168C22.1513 16.2485 22.5126 15.4235 23.135 14.8176C23.7574 14.2117 24.5918 13.8726 25.4604 13.8726C26.329 13.8726 27.1634 14.2117 27.7858 14.8176C28.4082 15.4235 28.7695 16.2485 28.7928 17.1168V23.5632H30.5256V17.0832C30.5142 15.7478 29.9756 14.4711 29.0271 13.5311C28.0785 12.5912 26.797 12.0641 25.4616 12.0648Z" fill="white"/>
<path d="M51.876 12.0672C50.5479 12.0766 49.2768 12.6079 48.337 13.5463C47.3972 14.4848 46.8641 15.7551 46.8528 17.0832V17.1288V23.5632H48.5856V17.1024C48.5919 16.2248 48.9444 15.385 49.5663 14.7658C50.1883 14.1465 51.0295 13.7977 51.9072 13.7952H52.0056V12.0648H51.8784L51.876 12.0672Z" fill="white"/>
<path d="M59.4528 12.0792C58.4012 12.0792 57.3686 12.3591 56.461 12.8902C55.5534 13.4213 54.8036 14.1845 54.2885 15.1013C53.7735 16.0181 53.5118 17.0555 53.5303 18.1069C53.5489 19.1583 53.847 20.1858 54.3941 21.0839C54.9412 21.982 55.7175 22.7182 56.6432 23.217C57.569 23.7157 58.6108 23.9591 59.6618 23.9219C60.7127 23.8848 61.7348 23.5686 62.623 23.0057C63.5113 22.4428 64.2337 21.6537 64.716 20.7192L63.2016 19.8816C62.7933 20.6966 62.1303 21.3561 61.3133 21.7603C60.4963 22.1645 59.5698 22.2913 58.6742 22.1214C57.7787 21.9515 56.9629 21.4942 56.3507 20.8189C55.7385 20.1436 55.3631 19.2871 55.2816 18.3792H65.3616C65.3616 18.2592 65.3808 18.1392 65.3808 18.0144C65.3824 17.2352 65.2302 16.4633 64.9329 15.7429C64.6357 15.0226 64.1992 14.368 63.6485 13.8166C63.0978 13.2653 62.4437 12.828 61.7238 12.5299C61.0038 12.2317 60.2321 12.0786 59.4528 12.0792ZM55.452 16.7424C55.7197 15.8914 56.2519 15.1479 56.9712 14.6201C57.6905 14.0923 58.5594 13.8077 59.4516 13.8077C60.3438 13.8077 61.2127 14.0923 61.932 14.6201C62.6513 15.1479 63.1835 15.8914 63.4512 16.7424H55.452Z" fill="white"/>
</g>
<g clip-path="url(#clip1_1_936)">
<path d="M20.592 46.4152H15.348L14.5492 48H12L17.9715 36L23.9415 48H21.39L20.5912 46.4152H20.592ZM16.371 44.3505H19.5472L17.9475 41.163L16.371 44.3505ZM32.445 44.6888L29.205 41.715V48H26.7225V36L32.4277 41.3415L38.2028 36V48H35.73V41.715L32.445 44.6888ZM51.0127 38.742H45.4673V40.9672H50.4802V43.281H45.4673V45.684H51.096V47.9977H42.9855V36.4275H51.0127V38.742ZM65.1675 42.285C65.1675 45.6675 62.706 48 58.9845 48H55.3005V36.4305H59.0918C62.8478 36.4268 65.1675 38.8665 65.1675 42.285ZM62.688 42.2137C62.688 40.029 61.2705 38.7435 59.2507 38.7435H57.7793V45.6847H59.2327C61.2165 45.6847 62.688 44.403 62.688 42.2137ZM68.073 36.4275H75.1958V38.7405H72.8737V45.6825H75.1958V47.9963H68.073V45.6825H70.395V38.7405H68.073V36.4275ZM86.286 46.4152H81.0413L80.2448 48H77.6865L83.6572 36L89.6287 48H87.0705L86.286 46.4152ZM82.065 44.3505H85.236L83.6408 41.163L82.065 44.3505ZM89.8643 36.4275H99.7852V38.7405H96.066V47.9963H93.585V38.7413H89.8643V36.426V36.4275ZM111.018 38.742H105.472V40.9672H110.487V43.281H105.472V45.684H111.101V47.9977H102.987V36.4275H111.013L111.018 38.742ZM117.786 42.6405V48H115.306V36.4305H117.786V41.595L121.718 36.4312H124.713L120.411 42.036L125.107 48H122.148L117.786 42.6405ZM134.652 46.4152H129.408L128.611 48H126.059L132.03 36L138 48H135.449L134.652 46.4152ZM130.431 44.3505H133.604L132.008 41.163L130.431 44.3505Z" fill="white"/>
</g>
<defs>
<clipPath id="clip0_1_936">
<rect width="53.52" height="12" fill="white" transform="translate(12 12)"/>
</clipPath>
<clipPath id="clip1_1_936">
<rect width="126" height="12" fill="white" transform="translate(12 36)"/>
</clipPath>
</defs>
</svg>
