<svg width="20" height="20" viewBox="0 0 20 20" fill="none" xmlns="http://www.w3.org/2000/svg">
<path fill-rule="evenodd" clip-rule="evenodd" d="M5.63991 1.875H14.3601C15.0375 1.87499 15.5838 1.87499 16.0262 1.91114C16.4818 1.94835 16.8819 2.02699 17.2521 2.2156C17.8401 2.51521 18.3181 2.99327 18.6177 3.58128C18.8063 3.95146 18.885 4.35158 18.9222 4.80711C18.9583 5.24953 18.9583 5.79587 18.9583 6.47323V10.1934C18.9583 10.8708 18.9583 11.4171 18.9222 11.8596C18.885 12.3151 18.8063 12.7152 18.6177 13.0854C18.3181 13.6734 17.8401 14.1515 17.2521 14.4511C16.8819 14.6397 16.4818 14.7183 16.0262 14.7555C15.5838 14.7917 15.0375 14.7917 14.3601 14.7917H11.7817L14.5571 17.012C14.8266 17.2276 14.8703 17.6209 14.6547 17.8904C14.4391 18.16 14.0458 18.2037 13.7762 17.988L10 14.9671L6.22377 17.988C5.95423 18.2037 5.56092 18.16 5.34529 17.8904C5.12966 17.6209 5.17336 17.2276 5.4429 17.012L8.21826 14.7917H5.6399C4.96254 14.7917 4.4162 14.7917 3.97378 14.7555C3.51825 14.7183 3.11813 14.6397 2.74795 14.4511C2.15994 14.1515 1.68188 13.6734 1.38227 13.0854C1.19366 12.7152 1.11502 12.3151 1.0778 11.8596C1.04166 11.4171 1.04166 10.8708 1.04167 10.1934V6.47325C1.04166 5.79588 1.04166 5.24953 1.0778 4.80711C1.11502 4.35158 1.19366 3.95146 1.38227 3.58128C1.68188 2.99327 2.15994 2.51521 2.74795 2.2156C3.11813 2.02699 3.51825 1.94835 3.97378 1.91114C4.4162 1.87499 4.96255 1.87499 5.63991 1.875Z" fill="#FFCC00"/>
</svg>
