<svg width="20" height="20" viewBox="0 0 20 20" fill="none" xmlns="http://www.w3.org/2000/svg">
<path fill-rule="evenodd" clip-rule="evenodd" d="M10 18.3334C14.6024 18.3334 18.3333 14.6024 18.3333 10C18.3333 5.39765 14.6024 1.66669 10 1.66669C5.39764 1.66669 1.66666 5.39765 1.66666 10C1.66666 14.6024 5.39764 18.3334 10 18.3334ZM9.61395 10.6384V7.08335H8.25571V10.4707C8.25571 10.9122 8.14951 11.2476 7.93711 11.4768C7.72471 11.7004 7.44517 11.8122 7.09869 11.8122C6.75211 11.8122 6.47257 11.7004 6.26017 11.4768C6.04777 11.2476 5.94157 10.9122 5.94157 10.4707V7.08335H4.58333V10.6384C4.58333 11.3818 4.81526 11.9743 5.27923 12.4158C5.7488 12.8518 6.35528 13.0698 7.09869 13.0698C7.8421 13.0698 8.44574 12.8518 8.90971 12.4158C9.37927 11.9743 9.61395 11.3818 9.61395 10.6384ZM10.8387 7.08335V8.27394H13.6391L10.7046 11.7786V12.9525H15.4167V11.7619H12.3647L15.2574 8.27394V7.08335H10.8387Z" fill="#FFCC00"/>
</svg>
